# xmcd
#
# Track frame offsets:
#	150
#	26402
#	52301
#	101799
#	131909
#	153687
#	183760
#	216753
#	244086
#	273087
#
# Disc length: 4443 seconds
#
# Revision: 0
# Processed by: cddbd v1.5.2PL0 Copyright (c) Steve Scherf et al.
# Submitted via: audiograbber 1.83.01
#
DISCID=9011590a
DTITLE=The Red Devils - Live @ London
DYEAR=1993
DGENRE=Blues
TTITLE0=She's Dynamite
TTITLE1=Your Turn To Cry
TTITLE2=Cross Your Heart
TTITLE3=She's Dangerous
TTITLE4=Mary Had A Little Lamb
TTITLE5=Commit A Crime
TTITLE6=Black Cat Bone
TTITLE7=Black Water Roll
TTITLE8=Who Do You Love?
TTITLE9=Come Back Baby--Back Stroke
EXTD=
EXTT0=
EXTT1=
EXTT2=
EXTT3=
EXTT4=
EXTT5=
EXTT6=
EXTT7=
EXTT8=
EXTT9=
PLAYORDER=
